<?xml version="1.0" encoding="UTF-8" ?>
<!DOCTYPE svg PUBLIC "-//W3C//DTD SVG 1.1//EN" "http://www.w3.org/Graphics/SVG/1.1/DTD/svg11.dtd">
<svg width="195pt" height="289pt" viewBox="0 0 1077 1592" version="1.1" xmlns="http://www.w3.org/2000/svg">
<g id="white">
</g>
<g id="blue">
<path fill="#001437" opacity="1.00" d=" M 587.20 0.00 L 595.18 0.00 C 603.79 1.21 612.19 3.59 620.39 6.46 C 619.63 12.20 619.38 17.98 618.60 23.72 C 615.27 19.58 612.19 15.21 608.50 11.38 C 601.62 7.43 592.41 6.03 585.35 10.32 C 580.97 13.37 578.08 18.10 575.92 22.89 C 570.91 34.87 570.90 48.28 572.66 60.96 C 573.71 68.50 576.52 76.47 582.96 81.05 C 587.76 84.92 594.40 82.80 599.67 81.09 C 600.72 68.86 601.26 56.60 602.20 44.36 C 607.88 44.81 613.61 44.92 619.26 45.69 C 620.22 46.80 619.42 48.47 619.43 49.79 C 617.40 61.25 615.45 72.72 613.52 84.19 C 613.22 85.42 613.16 87.05 611.76 87.58 C 606.07 90.77 599.40 91.73 592.96 91.70 C 586.66 91.61 579.97 90.99 574.66 87.24 C 565.99 81.40 561.31 71.50 558.06 61.90 C 555.98 52.83 555.68 43.36 556.58 34.12 C 558.31 24.89 562.31 15.80 569.09 9.16 C 574.09 4.52 580.30 0.75 587.20 0.00 Z" />
<path fill="#001437" opacity="1.00" d=" M 480.96 2.56 C 484.17 2.20 487.34 1.28 490.59 1.40 C 490.80 1.62 491.22 2.07 491.43 2.30 C 492.54 6.74 492.82 11.35 493.70 15.84 C 485.51 12.29 476.30 9.67 467.37 11.56 C 464.40 12.01 463.65 15.59 463.47 18.08 C 463.59 24.90 467.16 31.09 467.48 37.90 C 467.28 39.54 468.67 40.47 469.74 41.42 C 476.37 41.43 482.93 39.17 488.08 34.99 C 489.16 40.03 490.39 45.03 491.61 50.03 C 484.57 49.39 477.23 46.60 470.37 49.68 C 471.41 59.56 472.85 69.39 473.93 79.26 C 474.17 81.33 476.06 82.65 477.88 83.28 C 487.03 83.30 496.31 79.62 502.45 72.71 C 502.50 77.57 502.48 82.43 502.46 87.29 C 488.89 89.35 475.44 92.29 461.82 93.91 C 456.73 66.40 453.96 38.20 444.19 11.81 C 443.79 10.65 443.50 9.46 443.22 8.28 C 455.76 6.14 468.38 4.51 480.96 2.56 Z" />
<path fill="#001437" opacity="1.00" d=" M 699.72 23.31 C 705.97 25.07 711.90 27.82 718.07 29.84 C 717.10 32.79 715.52 35.47 714.26 38.29 C 705.39 57.84 699.97 78.69 692.79 98.87 C 691.36 102.44 691.28 106.33 690.53 110.06 C 684.63 109.26 678.89 107.61 673.08 106.40 C 682.53 85.15 689.37 62.83 695.53 40.42 C 696.57 36.00 698.56 31.73 698.49 27.12 C 698.44 25.73 699.19 24.53 699.72 23.31 Z" />
<path fill="#001437" opacity="1.00" d=" M 331.15 41.85 C 336.70 39.57 341.66 34.86 348.00 35.36 C 349.21 35.98 349.85 37.29 350.77 38.25 C 369.39 60.32 388.04 82.36 406.67 104.42 C 407.48 105.19 407.64 106.29 407.82 107.34 C 402.24 109.02 396.69 110.80 390.99 112.03 C 384.90 101.26 378.31 90.49 368.88 82.28 C 362.89 84.07 357.49 87.41 351.45 89.03 C 351.06 94.41 352.40 99.69 352.80 105.03 C 353.51 109.55 353.54 114.18 354.56 118.65 C 355.78 120.88 358.18 122.61 357.98 125.41 C 354.19 126.80 350.34 128.04 346.49 129.29 C 342.54 101.06 342.90 71.70 332.17 44.85 C 331.80 43.86 331.47 42.85 331.15 41.85 M 346.39 57.52 C 347.26 64.73 349.02 71.80 349.97 79.01 C 353.87 77.27 357.72 75.42 361.49 73.41 C 356.65 67.94 351.69 62.54 346.39 57.52 Z" />
<path fill="#001437" opacity="1.00" d=" M 783.62 72.66 C 785.43 68.59 786.63 64.09 789.83 60.80 C 802.66 67.77 817.57 71.35 828.54 81.44 C 833.92 87.55 835.97 96.04 835.71 104.04 C 835.85 111.36 833.81 118.70 829.82 124.85 C 822.61 137.32 812.01 148.48 798.17 153.35 C 790.15 156.56 781.11 155.89 773.10 153.04 C 765.00 150.32 757.89 145.46 750.45 141.37 C 750.21 140.76 749.73 139.55 749.49 138.94 C 750.50 136.00 752.44 133.56 754.14 131.01 C 766.08 112.71 775.14 92.74 783.62 72.66 M 793.67 91.73 C 786.50 108.31 774.91 122.68 769.01 139.85 C 771.18 142.22 773.65 144.54 776.88 145.31 C 781.94 146.11 787.16 144.96 791.68 142.64 C 800.05 138.39 805.87 130.72 811.26 123.29 C 815.26 118.19 817.90 112.12 819.55 105.88 C 821.64 98.07 820.49 89.14 815.42 82.70 C 812.16 79.51 807.60 77.27 802.97 77.53 C 798.50 81.17 796.12 86.65 793.67 91.73 Z" />
<path fill="#001437" opacity="1.00" d=" M 903.14 139.72 C 907.93 143.62 911.97 148.35 916.44 152.60 C 922.99 159.88 930.32 166.41 936.91 173.65 C 933.99 177.22 931.13 180.84 928.34 184.52 C 927.85 184.63 926.85 184.85 926.35 184.96 C 925.58 179.85 924.42 174.69 921.68 170.25 C 919.20 165.84 915.44 162.39 911.69 159.09 C 905.12 165.64 899.09 172.73 892.43 179.18 C 894.46 185.09 900.04 189.32 905.87 191.13 C 907.07 191.41 908.10 192.08 909.05 192.86 C 905.47 196.76 902.03 200.78 898.53 204.75 C 898.06 204.73 897.13 204.67 896.67 204.65 C 896.39 197.18 891.90 190.68 886.00 186.40 C 884.74 187.32 883.58 188.36 882.57 189.54 C 876.33 196.79 870.08 204.05 863.72 211.20 C 867.81 221.10 878.47 227.36 888.95 227.77 C 885.01 231.50 880.63 234.73 876.10 237.70 C 866.72 227.83 857.09 218.18 847.65 208.37 C 846.59 207.41 845.17 205.20 846.99 204.28 C 861.55 194.45 869.92 178.42 882.32 166.35 C 889.90 158.01 897.41 149.48 903.14 139.72 Z" />
<path fill="#001437" opacity="1.00" d=" M 159.37 152.30 C 162.21 148.37 165.89 144.58 170.90 143.78 C 176.19 144.26 181.48 144.79 186.76 145.40 C 191.51 150.22 195.67 156.15 196.45 163.04 C 196.90 166.57 195.69 169.98 195.21 173.43 C 202.27 171.65 210.32 169.99 216.94 174.04 C 224.60 179.65 230.79 188.13 231.53 197.84 C 232.19 202.73 230.28 207.56 227.69 211.62 C 222.51 219.39 214.16 224.19 208.40 231.46 C 207.76 232.67 206.40 232.77 205.21 233.06 C 200.98 226.06 194.67 220.68 188.33 215.66 C 172.20 203.60 159.98 186.62 141.94 177.08 C 139.74 175.98 140.98 173.21 141.44 171.43 C 149.07 166.78 153.02 158.33 159.37 152.30 M 160.20 165.94 C 166.16 172.77 171.91 180.14 180.06 184.53 C 183.96 180.84 187.06 175.16 185.32 169.71 C 183.34 164.06 177.68 161.24 173.27 157.73 C 167.68 157.57 162.45 160.81 160.20 165.94 M 187.66 189.88 C 186.65 190.76 188.07 191.64 188.57 192.31 C 195.18 198.93 201.88 205.46 208.28 212.28 C 210.24 212.70 212.17 213.29 214.19 213.37 C 217.89 212.08 220.34 208.01 219.69 204.14 C 218.49 194.15 209.76 186.02 200.17 183.93 C 195.10 182.57 190.87 186.53 187.66 189.88 Z" />
<path fill="#001437" opacity="1.00" d=" M 620.93 173.18 C 621.69 173.15 623.22 173.09 623.99 173.05 C 619.72 191.47 617.61 210.73 620.45 229.51 C 613.45 233.44 603.98 235.21 600.51 243.41 C 571.56 322.35 541.82 401.02 514.49 480.55 C 511.49 489.87 507.76 498.97 505.31 508.46 C 507.47 508.21 509.49 507.38 511.39 506.33 C 511.66 506.74 512.22 507.57 512.50 507.98 C 511.88 509.52 511.25 511.05 510.59 512.58 C 508.16 513.48 505.65 514.19 503.30 515.28 C 500.16 521.96 497.50 528.86 494.49 535.60 C 493.72 537.10 493.35 538.75 493.32 540.44 C 497.62 540.05 501.80 538.95 506.01 538.01 C 509.73 537.30 512.43 533.67 512.29 529.91 C 513.05 520.28 516.61 509.97 525.29 504.72 C 526.86 499.78 527.99 494.68 529.82 489.84 C 530.33 489.63 531.36 489.23 531.87 489.02 C 532.96 501.85 533.87 514.70 534.66 527.54 C 537.09 529.45 542.23 526.68 543.02 530.41 C 533.82 533.45 524.48 536.09 515.24 539.01 C 509.28 540.98 503.02 542.19 497.53 545.36 C 489.87 548.00 481.87 549.55 474.17 552.05 C 467.98 555.06 466.09 562.28 461.70 567.10 C 461.70 568.43 461.72 569.78 461.74 571.13 C 464.90 571.37 467.43 573.08 469.11 575.75 C 474.63 574.04 480.24 572.57 485.71 570.72 C 488.06 566.08 490.54 560.73 495.83 558.87 C 512.61 553.99 530.62 556.58 547.30 551.22 C 549.38 550.48 551.57 549.87 553.42 548.61 C 558.27 537.23 558.06 524.47 556.88 512.39 C 555.83 502.15 553.91 492.03 553.02 481.78 C 551.26 469.49 545.28 457.07 534.49 450.30 C 533.02 449.75 533.46 448.13 533.34 446.90 C 543.97 445.78 553.33 440.01 561.79 433.86 C 563.54 432.73 564.61 430.89 565.33 428.99 C 564.55 424.04 561.35 419.71 561.02 414.62 C 562.34 414.15 563.67 413.69 565.01 413.22 C 572.45 419.56 574.00 430.21 581.39 436.58 C 583.42 438.43 587.01 439.24 586.83 442.60 C 584.76 442.79 582.69 442.78 580.64 442.66 C 576.08 447.73 577.54 454.95 578.48 461.06 C 578.76 465.27 581.28 468.85 582.00 472.96 C 584.28 482.32 583.08 492.60 587.78 501.29 C 590.13 505.75 594.84 507.79 599.01 510.12 C 605.53 515.14 614.13 516.89 622.21 516.01 C 634.29 514.81 645.70 510.34 656.96 506.05 C 660.82 503.85 665.98 503.45 668.74 499.64 C 669.88 496.79 669.46 493.56 669.80 490.55 C 665.83 490.92 664.57 495.69 662.10 498.27 C 660.86 489.91 667.76 484.06 671.25 477.29 C 673.42 473.48 673.81 469.03 673.37 464.75 C 667.50 458.89 658.84 458.06 651.22 456.01 C 649.75 456.71 648.29 457.42 646.83 458.13 C 646.37 460.13 646.96 462.67 645.27 464.20 C 643.52 465.86 641.55 467.25 639.70 468.79 C 638.38 468.83 637.06 468.88 635.76 468.94 C 634.14 465.44 638.85 463.83 640.44 461.39 C 643.02 458.76 642.06 454.97 640.28 452.20 C 631.75 456.73 630.69 467.69 623.30 473.33 C 622.09 474.48 620.40 474.18 618.90 474.21 C 623.40 465.65 628.47 457.39 632.84 448.76 C 631.62 447.92 630.69 446.42 629.12 446.25 C 627.36 446.61 625.70 447.30 624.03 447.91 C 623.13 450.99 622.02 453.99 620.80 456.95 C 619.69 456.95 618.63 456.75 617.64 456.37 C 616.14 452.22 617.71 447.60 620.41 444.32 C 622.22 442.83 624.51 441.96 626.13 440.22 C 629.91 436.34 631.46 430.97 634.64 426.66 C 639.98 425.65 645.31 424.52 650.62 423.33 C 648.79 416.80 644.55 410.42 646.52 403.38 C 648.44 400.12 650.42 396.81 652.82 393.88 C 656.11 391.40 660.52 391.52 664.32 390.26 C 664.30 381.64 662.68 372.11 667.65 364.45 C 669.92 361.43 672.87 358.42 676.75 357.73 C 679.73 358.31 679.28 361.87 679.63 364.16 C 677.53 365.88 675.23 367.34 672.90 368.72 C 670.82 372.83 669.10 377.39 669.76 382.08 C 670.54 384.29 672.10 386.56 674.58 386.96 C 684.76 373.98 694.05 360.05 699.56 344.40 C 702.71 342.91 707.04 342.55 709.45 345.57 C 712.11 347.50 709.78 350.58 709.15 352.96 C 697.78 360.26 691.81 372.88 684.87 383.97 C 683.35 386.70 680.91 389.02 680.46 392.24 C 684.69 391.98 688.92 391.66 693.15 391.44 C 698.14 387.30 698.16 380.47 699.67 374.70 C 701.30 373.69 703.63 373.82 704.02 376.05 C 706.23 383.21 703.25 391.84 696.86 395.89 C 693.06 398.55 688.47 401.37 683.66 399.73 C 681.82 402.64 684.01 405.96 683.20 409.11 C 682.17 414.17 680.38 419.83 675.68 422.65 C 673.64 424.00 671.57 425.32 669.58 426.74 C 670.29 429.27 670.88 431.82 671.51 434.37 C 682.11 436.41 692.74 438.30 703.31 440.46 C 706.44 432.24 709.65 424.04 712.82 415.83 C 714.63 412.35 710.98 409.43 708.35 407.80 C 704.36 405.53 698.85 403.30 698.93 397.83 C 706.00 396.15 711.80 401.36 717.48 404.64 C 720.29 409.42 726.29 411.88 727.56 417.60 C 730.66 426.86 738.24 433.45 744.20 440.87 C 749.38 447.07 753.67 454.81 752.84 463.16 C 752.51 467.13 750.91 472.25 746.49 473.21 C 741.24 474.55 735.82 475.57 730.83 477.69 C 724.13 486.24 724.06 497.72 723.58 508.07 C 723.65 513.46 722.41 518.74 722.06 524.09 C 722.57 529.22 722.09 534.48 720.18 539.29 C 715.72 541.08 712.33 536.65 708.65 534.94 C 708.17 535.06 707.21 535.30 706.73 535.43 C 705.95 543.57 704.97 551.69 704.21 559.83 C 703.15 563.97 698.04 566.31 698.37 570.94 C 697.40 583.89 687.60 594.16 686.56 607.11 C 686.14 610.79 687.02 614.43 687.69 618.03 C 688.76 623.89 684.10 628.84 679.49 631.68 C 676.26 646.54 681.49 661.75 678.39 676.61 C 677.93 679.17 676.77 681.57 676.53 684.17 C 676.44 699.91 671.77 715.09 669.27 730.53 C 666.49 742.92 662.81 755.72 665.24 768.50 C 666.49 773.44 667.67 778.81 671.38 782.58 C 674.56 786.14 678.81 788.56 681.91 792.21 C 686.15 797.69 694.44 798.73 697.55 805.30 C 699.79 809.34 697.48 813.82 695.18 817.25 C 693.79 819.15 692.72 821.34 691.02 822.98 C 685.55 825.83 679.02 824.73 673.49 822.66 C 669.75 821.20 665.61 820.18 662.73 817.22 C 659.16 813.89 656.33 809.54 651.75 807.49 C 645.72 805.37 639.06 805.40 633.25 802.63 C 630.37 798.52 629.95 792.97 630.58 788.10 C 631.06 783.80 634.45 780.78 636.08 776.96 C 638.50 771.65 638.72 765.70 638.76 759.96 C 638.70 753.58 638.98 747.18 638.19 740.84 C 636.76 729.28 634.55 717.69 635.50 705.99 C 636.01 703.43 632.57 703.67 630.97 703.20 C 629.92 700.00 628.75 696.83 627.98 693.56 C 624.84 693.37 621.67 693.71 618.57 693.28 C 616.03 692.29 615.92 689.25 616.19 686.97 C 617.66 676.63 618.97 666.26 620.42 655.91 C 620.46 653.37 621.44 650.49 620.01 648.20 C 617.38 648.11 615.15 649.92 612.80 650.88 C 608.63 673.85 606.96 697.19 602.55 720.12 C 599.58 735.95 594.86 751.49 587.79 765.98 C 585.61 776.65 591.08 787.30 588.96 797.99 C 590.88 804.72 588.70 812.02 584.59 817.49 C 580.25 823.17 575.92 828.86 571.64 834.58 C 568.16 839.52 561.81 841.59 556.00 841.71 C 550.87 841.81 544.88 840.50 542.14 835.70 C 538.76 831.26 538.30 825.17 540.05 819.99 C 541.61 814.03 547.17 810.15 548.53 804.09 C 550.09 799.29 556.63 799.05 558.28 794.31 C 560.79 788.66 562.27 782.61 564.68 776.93 C 564.08 767.86 565.05 758.79 565.03 749.74 C 564.68 750.18 563.98 751.08 563.63 751.52 C 551.89 775.53 546.04 802.18 532.23 825.22 C 528.29 829.75 522.44 832.09 516.86 833.92 C 505.37 837.44 493.20 837.95 481.74 841.61 C 475.37 842.88 467.91 843.95 462.30 839.91 C 458.09 837.19 455.01 832.19 455.83 827.07 C 456.23 822.44 456.71 816.83 461.06 814.09 C 469.34 809.22 479.47 810.68 488.23 807.15 C 487.53 793.51 478.16 782.93 470.75 772.26 C 459.68 759.50 448.75 745.72 444.33 729.08 C 441.37 718.59 442.19 707.55 443.39 696.86 C 444.24 688.95 446.73 681.10 446.19 673.12 L 444.96 673.10 C 423.64 731.64 401.73 789.98 379.15 848.06 C 377.45 847.84 375.75 847.59 374.08 847.22 C 373.71 827.38 386.02 810.62 390.49 791.88 C 391.15 790.34 389.50 789.26 388.82 788.12 C 384.28 782.39 382.83 774.96 382.13 767.86 C 380.49 763.68 375.96 761.88 371.96 760.74 C 371.31 760.98 370.02 761.46 369.37 761.70 C 368.49 772.13 367.76 782.57 367.19 793.02 C 358.37 797.52 352.04 805.59 347.31 814.10 C 346.59 815.06 346.20 816.48 344.99 816.97 C 340.05 819.19 335.14 821.45 330.11 823.45 C 323.90 822.04 319.29 816.83 317.20 811.02 C 316.72 803.93 320.57 797.40 324.75 791.98 C 331.10 783.83 339.53 777.00 343.46 767.20 C 345.17 762.73 345.85 757.82 345.02 753.10 C 343.96 749.00 339.65 746.86 338.24 742.96 C 337.99 740.27 339.19 737.71 339.65 735.10 C 344.50 711.92 343.49 687.84 349.65 664.89 C 352.90 652.70 358.75 640.82 368.33 632.37 C 372.82 628.86 376.16 624.14 380.80 620.80 C 391.59 609.58 403.99 599.97 413.99 587.99 C 422.49 578.11 429.59 566.31 431.03 553.13 C 432.40 543.14 435.80 532.95 433.10 522.88 C 432.47 520.96 432.17 518.37 429.88 517.77 C 425.51 533.09 421.64 550.13 409.04 561.02 C 406.33 563.94 401.81 564.58 398.36 562.64 C 395.39 561.29 395.02 557.67 393.99 554.96 C 377.74 555.13 361.09 553.57 346.05 547.00 C 342.36 544.87 337.96 546.20 334.02 544.89 C 322.21 547.27 310.17 551.71 298.01 548.97 C 292.99 548.00 289.00 544.67 284.58 542.37 C 282.05 538.70 277.85 535.06 278.61 530.18 C 279.65 527.83 279.95 525.25 280.75 522.85 C 284.83 519.86 289.85 523.83 294.33 522.49 C 295.95 520.70 294.27 518.17 294.37 516.07 C 309.33 517.33 324.07 520.74 339.09 521.55 C 354.17 522.78 369.81 522.14 384.23 517.39 C 392.50 502.14 401.91 487.04 405.54 469.85 C 406.03 468.23 405.33 466.65 404.92 465.13 C 401.53 454.46 404.20 442.50 410.48 433.44 C 416.90 428.13 425.86 429.38 433.61 428.52 C 434.09 425.33 434.61 422.07 436.22 419.22 C 437.66 416.34 440.28 414.14 441.27 411.02 C 442.15 407.03 437.78 403.59 439.62 399.68 C 442.40 393.24 443.53 385.72 440.90 379.05 C 439.48 374.73 435.87 371.73 432.71 368.69 C 430.10 369.71 427.68 371.18 425.01 372.00 C 422.60 372.94 420.46 371.13 418.45 370.09 C 418.46 368.76 418.57 367.44 418.79 366.13 C 420.13 364.42 422.14 363.13 422.72 360.91 C 420.83 359.67 418.97 358.41 417.09 357.16 C 417.41 347.44 418.62 337.77 419.47 328.08 C 421.03 323.36 423.53 319.00 425.59 314.48 C 430.04 313.24 434.56 312.27 438.89 310.64 C 442.68 309.23 447.69 310.71 449.07 314.80 C 450.18 316.55 451.15 320.78 453.97 318.98 C 456.66 315.47 458.50 311.37 460.79 307.59 C 467.04 304.80 474.63 302.66 481.13 305.86 C 485.74 308.60 486.04 314.59 485.22 319.32 C 484.27 323.63 483.65 328.00 482.64 332.30 C 487.19 337.48 494.06 340.08 498.84 345.07 C 503.65 351.19 504.43 359.22 506.95 366.35 C 509.25 369.48 513.13 371.79 513.43 376.09 C 514.31 379.87 510.43 381.95 509.02 384.98 C 502.15 397.46 505.28 412.65 499.54 425.52 C 507.42 423.71 515.35 422.12 523.24 420.39 C 545.61 373.10 559.85 322.61 578.49 273.85 C 574.95 269.17 568.22 270.20 563.11 270.66 C 557.51 271.94 550.66 273.91 548.46 279.86 C 546.13 285.32 545.92 291.41 543.69 296.89 C 541.97 301.53 536.55 303.04 532.11 303.57 C 527.31 303.62 522.10 304.43 517.70 302.04 C 522.83 296.70 529.05 292.56 534.51 287.57 C 536.10 277.15 537.14 266.10 543.02 257.03 C 546.62 251.28 553.35 249.04 559.05 246.01 C 568.56 242.08 579.15 243.51 588.98 245.32 C 591.82 238.90 590.92 231.57 589.58 224.89 C 589.19 221.39 586.52 218.87 585.29 215.69 C 599.76 204.05 613.17 190.29 620.93 173.18 M 597.10 216.23 C 597.44 221.00 598.61 225.65 598.94 230.42 C 603.83 229.95 607.31 225.55 611.67 223.51 C 611.85 215.56 612.39 207.63 612.40 199.68 C 607.58 205.45 602.32 210.83 597.10 216.23 M 554.64 255.69 C 548.29 258.22 543.81 264.76 543.10 271.47 C 553.52 262.47 568.36 263.22 581.03 265.71 C 581.38 261.16 582.66 256.77 583.62 252.33 C 579.08 251.66 574.58 250.65 570.01 250.28 C 564.60 251.05 559.56 253.43 554.64 255.69 M 536.93 291.56 C 535.74 292.98 534.59 294.44 533.54 295.96 C 535.19 295.68 536.73 295.00 538.23 294.26 C 538.59 293.60 539.30 292.28 539.66 291.62 C 538.74 291.61 537.83 291.59 536.93 291.56 M 461.59 315.60 C 459.29 319.86 455.73 324.66 457.42 329.69 C 458.73 333.21 463.24 330.32 465.66 332.28 C 469.11 335.15 469.49 340.36 473.12 343.07 C 474.80 343.63 476.60 343.42 478.34 343.48 C 480.33 339.16 477.88 334.32 474.88 331.14 C 472.68 328.62 468.51 328.26 467.17 324.97 C 468.11 322.15 471.79 322.82 474.07 322.10 C 476.07 320.81 478.00 318.31 476.66 315.88 C 475.58 315.36 473.60 315.76 473.57 314.06 C 474.48 312.81 475.83 311.99 476.98 310.97 C 475.23 310.47 473.50 309.97 471.77 309.49 C 468.38 311.54 464.98 313.57 461.59 315.60 M 434.01 315.71 C 433.65 317.66 432.13 318.87 430.63 319.98 C 430.70 323.22 430.89 326.70 432.80 329.46 C 434.56 329.94 435.99 328.92 437.31 327.92 C 439.76 328.76 440.73 331.49 443.04 332.53 C 445.01 332.93 446.29 331.36 447.58 330.18 C 446.04 324.98 444.57 319.51 440.52 315.64 C 438.34 315.67 436.17 315.67 434.01 315.71 M 421.71 346.99 C 423.91 351.15 426.27 355.24 428.69 359.29 C 429.53 360.99 431.40 359.65 432.73 359.49 C 433.30 358.36 433.90 357.26 434.40 356.11 C 433.80 352.10 432.01 348.37 431.37 344.37 C 432.68 342.57 435.21 341.33 434.27 338.70 C 432.14 338.34 430.01 337.94 427.90 337.55 C 425.26 340.13 421.67 343.03 421.71 346.99 M 447.15 359.15 C 444.34 367.04 444.04 376.50 448.85 383.70 C 463.92 378.94 472.20 364.16 485.36 356.37 C 488.54 354.58 492.21 352.41 495.93 353.96 C 494.70 351.91 493.68 349.72 492.16 347.87 C 490.24 346.26 488.04 345.04 486.01 343.60 C 483.65 347.91 479.27 352.12 473.98 351.47 C 469.51 350.82 466.54 346.97 464.17 343.47 C 455.67 344.28 450.32 351.98 447.15 359.15 M 492.25 362.04 C 486.31 366.00 480.68 370.48 474.96 374.78 C 483.14 372.55 491.22 369.93 499.49 368.03 C 497.46 365.65 495.94 361.90 492.25 362.04 M 490.47 378.23 C 483.83 381.08 477.01 383.54 470.42 386.51 C 465.68 391.38 462.89 397.70 459.47 403.49 C 457.84 405.73 459.59 408.23 460.77 410.20 C 461.37 410.32 462.57 410.54 463.17 410.66 C 470.01 417.77 479.12 423.13 489.19 423.46 C 491.43 422.03 493.46 420.27 494.63 417.83 C 492.94 414.82 489.24 415.72 486.53 414.47 C 486.51 413.98 486.47 413.01 486.45 412.52 C 487.98 410.08 490.40 408.54 492.83 407.11 C 492.14 406.05 489.34 404.64 491.05 403.26 C 491.82 402.54 492.65 401.90 493.55 401.33 C 493.43 397.58 493.03 393.82 493.21 390.06 C 494.41 385.10 501.17 383.88 501.52 378.50 C 497.96 377.63 493.96 376.54 490.47 378.23 M 655.68 404.98 C 655.06 407.95 653.59 411.38 655.97 413.99 C 659.34 408.98 662.45 403.81 665.77 398.78 C 665.06 398.46 663.63 397.83 662.91 397.51 C 659.84 399.12 656.30 401.25 655.68 404.98 M 664.28 418.56 C 667.05 417.83 670.22 417.44 672.22 415.14 C 674.98 411.96 677.25 407.36 675.35 403.19 L 673.89 403.81 C 670.38 408.50 667.53 413.68 664.28 418.56 M 717.93 422.68 C 717.25 428.59 715.07 434.20 714.06 440.04 C 714.30 440.51 714.80 441.43 715.04 441.90 C 716.80 435.07 718.74 428.29 720.39 421.44 C 719.77 421.75 718.55 422.37 717.93 422.68 M 468.19 423.11 C 467.86 423.57 467.18 424.49 466.84 424.95 C 467.30 428.83 464.16 431.44 462.72 434.69 C 461.23 438.20 463.50 441.74 465.43 444.56 C 468.69 449.39 474.60 451.40 480.10 452.32 C 488.30 453.56 496.85 449.85 501.53 443.00 C 499.39 438.55 493.11 439.43 490.63 435.29 C 490.01 433.81 489.61 432.26 489.12 430.74 C 482.14 431.30 474.33 429.64 469.95 423.70 C 469.51 423.55 468.63 423.26 468.19 423.11 M 505.05 433.22 C 509.00 436.25 514.36 437.50 519.21 436.19 C 520.08 434.02 521.02 431.78 520.64 429.39 C 515.07 428.79 510.36 432.29 505.05 433.22 M 655.75 431.75 C 651.34 431.72 646.87 431.60 642.54 430.70 C 640.67 434.32 639.26 438.14 637.61 441.85 C 640.33 443.72 643.85 443.45 646.58 445.27 C 649.57 447.14 652.59 449.12 656.11 449.84 C 677.84 454.98 696.14 470.73 718.93 471.99 C 727.47 472.14 736.25 470.10 743.48 465.46 C 745.30 463.05 746.43 459.26 744.63 456.54 C 739.88 448.28 735.32 439.17 726.74 434.24 C 723.67 439.23 723.16 445.92 726.45 450.93 C 726.03 451.43 725.18 452.43 724.76 452.93 C 706.56 447.78 688.14 442.69 669.14 441.85 C 665.84 437.72 662.53 433.59 659.23 429.46 C 658.08 430.24 656.99 431.12 655.75 431.75 M 416.13 438.13 C 412.66 441.89 412.62 447.40 410.80 451.96 C 408.02 457.59 411.36 463.88 415.13 468.16 C 415.38 467.63 415.88 466.56 416.13 466.02 C 416.52 459.43 416.75 451.52 422.08 446.81 C 422.87 449.37 422.61 452.06 422.75 454.70 C 425.88 454.13 426.82 450.75 428.62 448.59 C 430.48 445.62 433.41 443.61 436.59 442.25 C 436.61 439.88 436.33 437.14 434.14 435.73 C 430.87 435.17 427.51 434.51 424.19 434.75 C 421.47 435.78 418.65 436.67 416.13 438.13 M 548.44 449.88 C 548.63 453.46 551.27 456.15 552.32 459.47 C 557.32 473.51 560.91 488.10 562.47 502.94 C 563.99 518.64 563.56 534.82 559.07 550.02 C 553.16 559.00 541.34 558.68 532.17 561.73 C 534.57 572.19 545.24 577.38 554.89 579.26 C 558.79 590.55 556.35 602.71 558.77 614.23 C 560.13 620.39 561.02 626.68 563.25 632.60 C 564.19 634.40 562.61 636.13 561.66 637.54 C 555.24 644.31 553.45 654.03 552.72 663.00 C 552.35 678.87 556.82 694.41 562.11 709.22 C 564.02 698.35 566.56 687.59 569.92 677.08 C 571.07 674.43 569.62 671.69 569.30 669.03 C 565.12 646.56 565.81 623.43 560.55 601.13 C 559.29 596.21 559.90 591.07 558.94 586.10 C 557.52 578.21 556.41 570.13 557.52 562.13 C 558.34 557.04 561.78 552.95 563.10 548.03 C 570.30 525.98 573.72 502.84 576.21 479.87 C 570.42 466.50 570.88 451.70 571.33 437.45 C 563.39 440.96 556.11 445.81 548.44 449.88 M 444.44 440.81 C 444.02 446.11 446.68 451.33 449.18 455.89 C 456.02 465.74 469.12 465.66 479.58 468.61 C 487.94 471.54 497.00 468.77 504.19 464.17 C 511.29 460.36 513.93 451.83 514.88 444.34 C 512.93 444.05 510.97 443.80 509.02 443.62 C 506.62 447.28 504.82 451.55 501.08 454.10 C 492.31 461.34 479.34 462.85 469.16 457.78 C 462.59 454.19 457.87 447.93 454.80 441.23 C 454.15 440.19 453.78 438.23 452.07 438.74 C 449.42 438.91 447.01 440.23 444.44 440.81 M 423.96 465.10 C 421.02 467.14 420.71 471.03 418.74 473.79 C 417.07 475.44 414.63 475.84 412.48 476.58 C 407.00 489.44 404.37 503.86 395.30 514.93 C 397.82 519.26 402.76 521.26 406.24 524.70 C 406.48 532.66 407.36 540.59 407.74 548.55 C 408.19 548.42 409.08 548.17 409.53 548.05 C 416.86 539.64 419.92 528.45 421.46 517.62 C 424.08 499.46 422.63 480.32 430.26 463.19 C 430.85 463.24 432.03 463.34 432.62 463.39 C 433.07 472.80 429.29 482.43 432.50 491.67 C 434.73 496.10 438.84 499.87 443.85 500.73 C 448.33 501.92 452.46 498.68 456.99 499.14 C 469.78 498.10 481.61 504.77 494.36 504.39 C 497.76 494.77 501.19 485.16 504.62 475.54 C 496.72 476.81 488.51 477.93 480.59 476.33 C 470.64 472.91 459.55 473.79 450.04 468.98 C 442.77 465.08 439.32 456.87 438.02 449.11 C 431.77 452.96 429.87 460.86 423.96 465.10 M 682.05 470.45 C 679.92 478.99 675.42 487.15 675.93 496.20 C 676.13 498.82 677.12 501.32 677.36 503.94 C 676.14 510.90 678.35 517.83 678.14 524.81 C 677.72 529.20 676.74 533.56 676.82 538.00 C 677.21 550.57 679.72 563.61 675.75 575.86 C 679.09 590.78 677.51 606.18 677.82 621.33 C 678.70 621.33 679.59 621.34 680.50 621.36 C 682.35 572.24 684.16 523.12 685.80 473.99 C 686.47 471.66 684.14 470.15 682.05 470.45 M 693.67 480.84 C 697.32 507.80 688.46 534.81 692.65 561.74 C 694.55 560.05 698.16 559.14 698.13 556.09 C 698.16 530.39 699.00 504.70 699.29 479.01 C 697.75 478.41 696.21 477.77 694.69 477.17 C 693.76 478.25 693.42 479.47 693.67 480.84 M 706.73 480.78 C 706.66 490.08 706.25 499.38 706.59 508.67 C 708.15 507.91 709.88 506.97 710.09 505.04 C 711.03 496.98 712.60 488.82 711.12 480.72 C 709.64 480.44 707.78 478.99 706.73 480.78 M 437.70 508.69 C 435.86 516.76 439.30 524.47 441.58 532.00 C 441.54 549.04 436.04 565.78 427.26 580.28 C 418.32 595.17 406.26 607.85 393.64 619.64 C 387.53 625.52 380.59 630.52 375.08 637.01 C 365.90 646.75 357.27 658.75 357.40 672.72 C 360.92 672.94 364.83 672.36 368.07 673.90 C 379.35 684.33 383.05 700.15 384.50 714.87 C 386.48 734.04 385.36 753.86 391.75 772.31 C 392.53 774.36 393.03 776.72 394.79 778.21 C 395.79 774.33 397.33 770.63 398.70 766.88 C 412.73 728.77 426.74 690.65 440.78 652.55 C 442.14 649.57 438.86 647.13 438.65 644.19 C 444.14 628.11 440.52 610.72 444.56 594.39 C 448.05 591.31 450.99 587.68 454.24 584.36 C 457.48 579.76 452.94 574.13 454.25 569.22 C 457.84 560.50 462.42 551.62 470.24 545.97 C 473.81 545.16 477.26 543.60 480.15 541.37 C 483.47 532.96 486.31 524.37 489.58 515.93 C 479.69 513.37 469.92 510.38 460.04 507.82 C 452.59 507.63 445.15 508.64 437.70 508.69 M 578.87 516.89 C 580.14 530.95 573.40 543.99 568.94 556.95 C 567.51 561.51 565.40 566.06 565.67 570.95 C 566.17 581.05 567.57 591.13 570.25 600.90 C 575.09 619.19 583.69 636.17 592.75 652.67 C 594.34 652.40 596.15 652.65 597.52 651.59 C 611.66 642.21 628.40 638.11 643.32 630.27 C 654.22 624.89 664.33 616.85 669.60 605.66 C 671.02 603.66 669.81 601.30 669.60 599.14 C 666.40 581.26 671.93 563.02 668.09 545.20 C 666.83 546.28 665.53 547.39 664.90 548.96 C 663.70 551.59 661.46 553.52 660.08 556.04 C 655.24 564.57 653.95 574.91 647.55 582.58 C 641.27 585.64 634.39 587.31 627.96 590.04 C 626.11 590.88 622.97 591.82 622.61 588.86 C 623.76 585.91 625.95 583.02 629.12 582.15 C 632.91 580.98 636.48 579.14 640.35 578.19 C 651.73 563.72 655.32 544.91 665.91 529.95 C 667.97 527.15 669.32 523.53 668.31 520.06 C 662.47 524.88 658.03 531.17 652.59 536.41 C 644.44 538.85 639.48 546.08 632.80 550.81 C 629.85 548.56 631.52 544.59 633.14 542.07 C 636.72 536.80 643.19 534.92 647.73 530.74 C 649.54 529.14 650.40 526.81 651.86 524.94 C 655.61 521.97 660.06 519.88 663.40 516.37 C 665.01 514.73 667.37 512.33 665.19 510.12 C 660.04 511.87 655.09 514.13 649.95 515.93 C 636.17 521.07 621.26 524.41 606.52 522.16 C 602.73 521.67 600.13 518.50 596.71 517.07 C 591.52 514.70 586.53 511.76 582.84 507.32 C 580.73 510.12 579.83 513.57 578.87 516.89 M 526.28 516.03 C 524.14 520.77 522.48 525.73 520.48 530.54 C 522.57 530.64 524.65 530.34 526.56 529.41 C 527.58 524.78 527.28 520.00 528.24 515.36 C 527.75 515.53 526.77 515.86 526.28 516.03 M 306.94 522.75 C 307.54 524.49 309.95 527.12 307.78 528.60 C 301.00 528.72 294.21 528.73 287.43 528.83 C 287.35 529.26 287.19 530.13 287.11 530.57 C 289.98 533.39 291.57 538.08 295.85 539.05 C 301.66 540.42 307.59 542.96 313.63 541.38 C 317.33 540.18 321.03 538.84 324.94 538.49 C 339.13 537.14 353.60 539.71 366.54 545.64 C 377.26 548.61 389.47 548.68 399.37 543.05 C 399.43 536.90 398.43 530.40 394.43 525.50 C 385.54 525.48 376.03 523.59 367.79 527.99 C 353.70 531.81 338.70 531.23 324.51 528.22 C 323.23 528.10 322.72 526.91 322.12 525.98 C 317.04 524.99 312.04 523.64 306.94 522.75 M 493.55 571.53 C 487.13 580.99 475.08 583.09 464.56 584.36 C 463.73 590.24 459.26 594.34 455.92 598.86 C 448.22 621.92 453.77 646.35 454.80 669.96 C 455.87 682.30 455.03 694.82 452.27 706.90 C 449.96 720.60 455.14 734.31 462.11 745.90 C 465.78 751.72 469.29 757.78 474.19 762.69 C 479.25 769.39 484.04 776.31 488.47 783.45 C 491.52 788.54 494.85 793.60 496.38 799.42 C 499.20 809.78 497.76 821.21 492.48 830.57 C 494.17 830.46 495.91 830.34 497.53 829.73 C 502.15 827.84 507.25 827.90 512.00 826.44 C 518.76 824.76 525.89 821.39 529.01 814.77 C 534.80 798.88 542.48 783.71 547.72 767.60 C 553.70 750.43 557.45 732.02 555.06 713.82 C 553.66 704.33 548.73 695.85 546.80 686.50 C 546.14 682.96 544.17 679.70 544.32 676.02 C 544.14 671.25 545.45 665.46 541.10 662.08 C 540.27 662.93 539.50 663.83 538.80 664.78 C 537.62 672.28 542.24 678.88 543.37 686.08 C 539.92 691.66 542.61 698.02 544.52 703.61 C 545.19 707.25 546.65 710.62 548.62 713.75 C 547.60 715.74 546.89 717.97 545.31 719.63 C 542.29 719.73 540.14 716.66 538.59 714.41 C 538.09 712.04 539.23 709.57 539.46 707.20 C 533.91 701.98 535.32 693.73 536.48 687.06 C 536.64 683.38 538.55 678.83 535.74 675.78 C 536.84 683.76 533.25 691.16 532.00 698.86 C 531.29 702.64 532.40 706.53 534.64 709.60 C 534.69 712.28 534.68 714.97 534.67 717.66 C 535.66 717.59 536.66 717.53 537.67 717.47 C 539.57 718.78 541.50 720.06 543.47 721.29 C 543.93 722.80 544.40 724.33 544.87 725.86 C 543.33 728.11 541.32 731.24 538.14 730.59 C 534.82 729.51 530.66 727.86 530.02 723.96 C 528.37 717.02 526.80 710.07 525.07 703.15 C 522.38 705.10 521.27 708.73 522.15 711.90 C 523.54 718.43 528.54 723.56 529.62 730.20 C 530.22 733.89 530.94 737.92 529.27 741.46 C 527.87 744.10 523.88 746.28 521.57 743.42 C 518.32 741.18 517.90 737.21 518.37 733.61 C 521.58 730.47 521.33 725.44 519.35 721.71 C 516.95 716.90 514.18 711.99 514.43 706.42 C 513.03 706.79 511.00 706.77 510.39 708.38 C 508.96 711.43 510.78 714.87 512.62 717.35 C 514.44 720.05 517.61 722.41 517.30 726.01 C 517.27 728.08 517.55 730.50 516.03 732.18 C 514.29 734.16 510.21 734.56 509.55 731.40 C 506.96 728.21 510.71 721.51 504.72 721.32 C 504.14 723.12 505.98 725.11 504.76 726.77 C 503.95 728.06 502.83 729.68 501.18 729.78 C 498.13 728.98 495.03 727.34 493.80 724.26 C 490.36 716.85 492.00 708.42 490.09 700.65 C 489.07 701.49 488.20 702.54 487.77 703.81 C 484.07 713.14 494.61 722.60 489.21 731.73 C 487.94 731.70 486.67 731.68 485.41 731.68 C 482.22 729.63 479.56 726.14 480.18 722.15 C 480.72 716.30 480.22 710.40 480.92 704.57 C 480.10 705.97 479.13 707.28 478.14 708.56 C 474.73 707.70 470.90 705.87 470.65 701.86 C 474.89 694.24 468.57 685.95 471.15 677.97 C 466.85 669.57 468.33 659.90 469.40 650.93 C 465.76 651.07 464.98 655.19 464.86 658.09 C 467.02 662.50 467.08 667.44 467.69 672.22 C 467.95 673.44 467.68 674.77 466.72 675.64 C 463.96 676.53 460.81 675.09 459.42 672.63 C 457.63 669.08 459.81 665.36 460.47 661.83 C 460.07 659.24 459.54 656.66 459.70 654.03 C 459.39 648.13 465.09 644.31 469.98 642.42 C 475.96 645.18 478.53 651.48 480.78 657.22 C 481.35 659.22 483.74 661.30 482.39 663.42 C 480.68 666.48 477.18 662.10 475.20 664.92 C 476.76 668.29 478.12 671.76 479.69 675.13 C 480.90 678.25 486.36 677.16 486.64 680.90 C 487.52 685.91 489.62 691.21 494.24 693.88 C 496.44 694.73 498.94 694.88 500.95 696.25 C 506.74 700.57 514.67 699.71 521.29 698.14 C 526.80 695.32 528.76 688.66 529.65 682.98 C 528.96 675.79 529.72 668.59 529.53 661.39 C 526.31 661.24 523.07 661.72 520.52 663.81 C 521.04 667.16 522.08 670.51 521.81 673.94 C 520.94 676.54 518.55 678.11 516.35 679.50 C 514.07 678.36 511.56 678.19 509.30 679.44 C 507.68 678.48 505.92 677.70 504.62 676.33 C 504.02 674.90 504.25 673.30 504.13 671.81 C 507.64 670.75 511.49 670.38 514.58 668.23 C 514.96 662.63 512.99 656.56 516.17 651.48 C 520.76 651.59 525.35 651.50 529.95 651.26 C 529.67 646.25 526.40 641.96 526.31 636.96 C 527.02 632.49 531.03 629.40 534.82 627.45 C 536.94 627.44 538.77 628.67 540.66 629.47 C 542.22 632.50 542.07 635.97 542.83 639.22 C 543.75 641.30 545.27 643.94 547.92 643.69 C 549.74 641.94 550.32 639.32 551.35 637.09 C 552.69 619.66 547.85 602.63 545.30 585.54 C 533.94 584.76 526.74 574.14 523.20 564.35 C 517.15 563.66 510.95 562.77 504.94 564.25 C 500.38 565.04 495.85 567.35 493.55 571.53 M 641.59 638.97 C 637.79 653.59 650.28 665.75 650.53 680.01 C 651.03 684.46 645.79 686.79 645.57 691.11 C 642.93 712.89 644.28 735.01 647.91 756.61 C 649.99 756.56 652.10 756.68 654.13 757.26 C 655.11 756.65 656.74 756.60 657.10 755.31 C 659.83 745.82 659.95 735.82 662.26 726.24 C 670.33 691.63 670.91 655.87 670.39 620.52 C 660.78 626.65 651.33 633.04 641.59 638.97 M 572.79 630.82 C 570.78 634.80 572.69 639.07 573.05 643.18 C 573.31 647.69 575.88 651.58 576.71 655.97 C 581.04 673.64 576.66 691.77 573.00 709.14 C 569.30 726.42 565.61 744.70 570.79 762.08 C 572.02 765.05 570.68 768.26 571.55 771.30 C 572.55 771.55 573.56 771.80 574.58 772.08 C 576.19 771.54 577.81 771.03 579.43 770.52 C 580.51 767.16 580.73 763.55 582.33 760.36 C 596.25 728.21 600.18 692.98 603.62 658.45 C 600.48 657.56 598.26 660.47 595.70 661.75 C 592.88 663.71 589.08 664.73 585.84 663.21 C 582.23 654.43 579.07 645.46 575.63 636.61 C 574.72 634.67 574.60 632.18 572.79 630.82 M 533.49 635.51 C 534.44 642.62 535.94 649.65 536.85 656.77 C 540.36 655.85 542.97 652.97 546.22 651.37 L 546.42 649.23 C 544.30 649.85 542.31 651.21 540.06 651.23 C 538.07 647.86 537.69 643.62 536.40 639.89 C 535.68 638.31 535.89 635.55 533.49 635.51 M 632.76 649.97 C 631.55 658.11 630.46 666.27 629.08 674.39 C 627.66 676.94 625.53 679.11 624.62 681.97 C 624.87 682.54 625.36 683.66 625.60 684.22 C 627.72 684.28 630.11 683.87 631.98 685.17 C 633.50 686.56 634.55 688.38 635.97 689.89 C 637.34 688.16 638.28 686.14 638.55 683.94 C 640.86 673.11 636.95 662.38 634.35 651.98 C 634.30 650.90 633.77 650.23 632.76 649.97 M 357.30 686.98 C 355.99 710.35 354.52 733.70 353.44 757.08 C 356.75 759.12 361.58 759.69 364.21 756.27 C 363.28 744.30 366.97 732.60 371.73 721.77 C 375.60 710.38 374.60 697.44 369.28 686.67 C 368.24 684.00 366.05 681.91 363.19 681.33 C 360.52 681.96 357.10 683.78 357.30 686.98 M 478.18 684.52 C 477.89 689.80 481.73 694.09 481.88 699.32 C 484.10 694.31 482.77 687.75 478.18 684.52 M 498.66 717.14 C 500.57 718.31 502.13 720.53 504.54 720.57 C 503.43 718.52 502.48 716.36 502.61 713.95 C 502.22 710.68 503.39 706.05 499.71 704.29 C 499.14 708.55 498.97 712.85 498.66 717.14 M 371.64 751.32 C 373.56 753.20 375.32 755.91 378.38 755.65 C 377.59 747.35 377.43 738.99 376.24 730.74 C 374.52 737.56 373.45 744.52 371.64 751.32 M 351.91 765.41 C 349.53 771.33 346.79 777.10 344.36 783.01 C 348.19 784.89 351.74 787.31 355.67 789.00 C 356.52 788.30 357.37 787.62 358.24 786.94 C 357.40 779.92 357.71 772.79 356.49 765.83 C 354.96 765.68 353.43 765.54 351.91 765.41 M 647.78 766.36 C 646.84 772.17 645.20 777.99 642.08 783.04 C 639.69 786.54 638.62 791.04 639.81 795.17 C 645.03 796.93 650.26 798.65 655.42 800.58 C 659.50 796.23 661.30 790.29 664.22 785.17 C 661.27 778.84 658.81 772.29 656.16 765.84 C 653.35 765.79 650.53 765.77 647.78 766.36 M 572.21 780.64 C 569.24 786.44 565.39 792.52 566.48 799.35 C 572.21 799.75 577.70 802.37 581.33 806.88 C 581.86 806.77 582.92 806.56 583.45 806.45 C 583.40 805.62 583.32 803.97 583.27 803.15 C 578.90 796.79 582.86 788.74 580.24 781.83 C 577.76 780.51 574.96 780.27 572.21 780.64 M 324.59 803.28 C 324.78 804.90 325.08 806.53 325.49 808.14 C 328.74 809.67 331.87 811.42 334.98 813.22 C 336.65 812.54 338.32 811.88 340.01 811.23 C 342.06 807.58 344.26 804.01 346.37 800.40 C 344.06 796.68 340.33 794.33 336.13 793.32 C 332.38 796.75 328.50 800.03 324.59 803.28 M 667.68 806.06 C 666.90 808.16 668.91 809.60 670.34 810.75 C 675.75 814.64 682.98 816.90 689.50 814.60 C 689.76 813.07 691.07 811.50 690.19 809.97 C 687.91 804.33 682.12 801.71 677.52 798.30 C 675.79 797.13 674.29 794.94 671.91 795.73 C 668.01 797.52 668.77 802.56 667.68 806.06 M 546.61 824.27 C 550.48 826.76 554.48 829.06 558.27 831.70 C 561.49 831.35 565.02 830.79 567.40 828.36 C 570.53 825.31 572.44 820.18 569.87 816.22 C 566.33 811.53 559.78 812.24 554.60 811.56 C 551.16 815.22 547.13 818.95 546.61 824.27 M 475.00 816.67 C 475.60 817.94 476.21 819.22 476.84 820.49 C 480.77 820.36 485.88 821.24 488.37 817.38 C 488.40 816.37 488.46 814.37 488.49 813.37 C 483.96 814.31 479.48 815.49 475.00 816.67 M 462.91 825.80 C 462.41 829.06 464.36 831.97 466.22 834.46 C 468.04 834.88 469.87 835.32 471.70 835.75 C 475.06 833.66 479.91 832.77 481.29 828.56 C 478.04 828.47 474.50 828.60 471.68 826.76 C 470.98 825.43 470.50 824.03 470.00 822.64 C 468.23 822.22 466.46 821.82 464.69 821.48 C 464.05 822.89 463.36 824.29 462.91 825.80 Z" />
<path fill="#001437" opacity="1.00" d=" M 89.82 239.10 C 91.58 235.42 93.16 231.12 97.03 229.16 C 97.88 229.56 98.59 230.15 99.17 230.91 C 112.94 248.01 136.03 253.21 150.97 268.98 C 157.31 275.83 161.18 285.20 160.39 294.60 C 158.31 302.82 152.87 310.19 145.62 314.60 C 140.42 317.87 133.95 317.84 128.06 317.18 C 117.15 315.71 107.63 309.87 98.00 304.98 C 85.89 299.84 75.75 290.12 62.36 288.15 C 62.91 280.67 67.38 274.22 72.76 269.28 C 85.29 278.09 97.05 288.12 110.64 295.33 C 119.96 300.20 130.32 303.61 140.93 303.48 C 146.21 301.43 150.38 296.40 151.93 290.94 C 153.74 284.46 149.87 278.03 145.45 273.63 C 130.01 263.77 115.84 251.87 99.34 243.73 C 96.19 242.12 92.89 240.86 89.82 239.10 Z" />
<path fill="#001437" opacity="1.00" d=" M 636.46 273.66 C 638.26 272.87 640.20 272.68 642.16 272.88 C 640.30 277.42 637.52 281.51 635.77 286.09 C 638.44 286.94 641.24 286.45 643.99 286.37 C 648.70 286.22 653.48 286.13 658.06 284.94 C 660.80 284.27 663.09 282.43 665.90 281.96 C 665.24 288.90 658.45 293.23 656.93 299.92 C 655.92 302.39 657.17 304.81 657.90 307.15 C 661.36 310.13 665.03 312.86 668.46 315.89 C 668.23 316.60 667.77 318.02 667.54 318.73 C 664.20 320.59 661.07 322.77 657.85 324.81 C 653.62 334.12 659.63 343.70 659.47 353.19 C 657.89 356.88 655.69 360.27 653.81 363.80 C 652.76 365.98 649.80 366.79 649.47 369.34 C 648.67 373.37 650.61 377.75 653.95 380.10 C 656.52 382.31 660.39 383.90 660.14 387.92 C 656.47 387.78 652.78 387.51 649.23 386.53 C 646.78 384.97 645.54 382.08 644.72 379.39 C 642.68 371.86 643.43 363.57 639.41 356.61 C 638.11 353.88 642.02 353.15 643.15 351.34 C 644.13 348.90 644.65 346.31 645.51 343.83 C 644.81 342.84 643.98 342.00 643.01 341.32 C 641.15 341.96 639.38 342.83 637.60 343.65 C 636.23 341.51 635.75 338.99 635.23 336.55 C 624.68 334.23 613.80 333.68 603.14 331.95 C 601.16 331.43 599.19 331.86 597.38 332.66 C 597.38 333.94 596.88 335.31 597.42 336.55 C 600.06 338.17 602.95 339.32 605.77 340.59 C 606.51 345.70 606.59 350.87 606.89 356.02 C 608.31 356.65 609.70 357.31 611.11 358.01 C 609.01 358.90 606.79 359.37 604.56 359.71 C 603.83 360.52 603.10 361.34 602.38 362.16 C 605.32 365.30 612.15 362.33 613.15 367.76 C 610.62 368.13 607.68 367.12 605.48 368.66 C 604.98 370.80 605.04 373.68 607.28 374.82 C 610.30 376.45 613.95 375.57 617.17 375.11 C 621.56 374.41 624.42 370.05 629.01 369.94 C 628.59 375.59 623.27 379.03 618.95 381.81 C 601.80 391.67 580.56 388.31 563.07 397.28 C 559.78 399.13 556.49 401.16 553.96 404.00 C 552.30 406.20 551.07 409.36 547.74 409.10 C 547.56 404.23 550.70 400.10 553.33 396.29 C 558.83 389.04 568.45 387.19 577.03 387.26 C 585.68 386.86 595.56 387.31 602.53 381.27 C 601.19 377.82 599.11 374.54 599.20 370.71 C 592.71 364.05 594.40 354.24 593.14 345.87 C 591.84 341.82 591.54 337.62 591.65 333.40 C 587.51 331.56 583.53 329.38 579.43 327.45 C 577.97 324.45 577.45 320.56 579.90 317.91 C 581.44 314.75 585.69 314.28 586.94 310.91 C 590.74 303.01 596.31 295.87 598.57 287.30 C 611.10 282.49 623.85 278.26 636.46 273.66 M 601.28 301.41 C 598.72 307.42 595.55 313.27 591.01 318.03 C 589.41 319.06 587.33 319.43 586.22 321.11 C 593.66 324.70 601.94 326.13 610.13 326.65 C 619.81 327.36 629.36 324.68 639.04 325.46 C 646.23 323.06 653.09 319.69 660.20 317.05 C 660.29 316.20 660.48 314.51 660.57 313.67 C 657.86 313.08 654.13 313.76 652.82 310.66 C 650.12 311.52 647.47 312.49 644.86 313.56 C 643.04 312.75 642.43 311.14 642.65 309.26 C 646.03 304.54 650.53 299.53 649.41 293.24 C 645.89 293.31 642.05 292.77 638.90 294.70 C 631.84 298.36 630.44 307.77 622.91 310.80 C 621.72 309.89 619.75 309.55 619.21 308.08 C 621.79 303.18 624.70 298.44 627.60 293.72 C 623.73 293.39 619.90 292.51 616.02 292.46 C 610.58 294.23 604.58 296.44 601.28 301.41 Z" />
<path fill="#001437" opacity="1.00" d=" M 1023.07 312.08 C 1024.07 311.31 1025.34 311.16 1026.56 310.92 C 1030.85 320.29 1035.16 329.68 1040.20 338.68 C 1044.11 345.62 1042.65 354.28 1038.98 361.00 C 1037.26 364.92 1033.15 366.79 1029.59 368.66 C 1021.80 372.19 1012.75 373.60 1004.40 371.43 C 998.45 369.21 994.15 363.72 992.30 357.78 C 991.86 354.29 992.38 350.76 992.37 347.27 C 986.31 347.71 981.39 351.49 976.09 354.01 C 970.04 356.58 963.84 359.34 959.07 363.98 C 958.08 364.84 956.68 366.39 955.70 364.63 C 953.68 361.14 951.99 357.47 950.04 353.94 C 949.19 352.52 948.93 350.84 949.22 349.22 C 950.70 347.51 953.13 347.25 955.14 346.45 C 979.17 338.04 1001.81 326.00 1023.07 312.08 M 1024.45 332.16 C 1014.78 336.78 1005.14 341.47 995.43 346.00 C 996.39 352.15 1001.50 357.92 1007.97 358.17 C 1016.76 357.36 1025.73 353.50 1030.84 346.02 C 1030.08 341.10 1029.32 336.18 1028.34 331.30 C 1026.98 331.34 1025.64 331.51 1024.45 332.16 Z" />
<path fill="#001437" opacity="1.00" d=" M 615.40 338.95 C 617.27 339.52 619.11 340.16 620.95 340.83 C 619.99 343.29 617.20 344.47 614.75 344.80 C 611.87 343.19 614.47 340.90 615.40 338.95 Z" />
<path fill="#001437" opacity="1.00" d=" M 25.64 367.64 C 27.94 363.02 30.15 358.19 33.63 354.33 C 37.73 355.96 41.98 357.11 46.14 358.54 C 41.23 362.31 33.80 363.94 31.67 370.40 C 30.88 372.60 30.71 374.94 30.56 377.25 C 32.89 380.77 35.69 383.97 39.03 386.56 C 54.00 384.76 65.18 372.63 79.97 370.21 C 88.39 368.53 97.14 371.94 103.37 377.57 C 109.77 384.85 112.83 395.71 109.12 404.95 C 106.62 410.29 103.61 416.04 98.04 418.72 C 92.98 417.60 87.74 416.98 82.89 415.12 L 82.06 413.66 C 89.59 412.59 98.50 410.50 102.07 402.95 C 103.85 396.48 100.50 388.36 93.87 386.20 C 86.53 383.24 77.65 384.63 71.64 389.80 C 62.17 396.45 51.27 403.96 39.09 402.05 C 32.06 401.47 27.63 395.23 24.48 389.60 C 20.57 382.73 22.84 374.46 25.64 367.64 Z" />
<path fill="#001437" opacity="1.00" d=" M 452.60 377.67 C 450.90 373.13 451.04 367.85 454.10 363.91 C 455.00 368.74 455.66 373.63 456.68 378.45 C 455.24 378.75 453.48 379.23 452.60 377.67 Z" />
<path fill="#001437" opacity="1.00" d=" M 478.65 389.20 C 480.59 387.57 483.00 386.85 485.53 387.02 C 483.46 388.11 481.09 390.66 478.65 389.20 Z" />
<path fill="#001437" opacity="1.00" d=" M 480.17 393.41 C 481.89 392.53 485.42 391.06 485.90 394.06 C 486.09 397.54 482.26 396.53 480.12 396.04 C 480.13 395.38 480.16 394.07 480.17 393.41 Z" />
<path fill="#001437" opacity="1.00" d=" M 597.47 404.35 C 595.73 404.28 595.77 400.72 597.88 401.53 C 602.72 402.13 607.50 403.22 612.34 403.84 C 612.53 404.85 612.71 405.87 612.89 406.90 C 607.67 406.58 602.60 405.23 597.47 404.35 Z" />
<path fill="#001437" opacity="1.00" d=" M 981.22 446.03 C 1010.92 449.40 1040.81 454.57 1070.77 451.42 C 1071.55 456.75 1072.35 462.09 1073.37 467.39 C 1063.99 474.55 1052.71 478.53 1041.80 482.70 C 1041.20 483.72 1040.83 485.05 1039.63 485.51 C 1028.05 491.01 1016.42 496.39 1004.82 501.83 C 1001.10 503.64 996.85 504.89 994.36 508.43 C 993.52 509.96 991.19 510.59 990.27 508.78 C 987.25 503.77 989.16 497.63 988.20 492.13 C 991.88 491.35 995.56 490.49 999.19 489.47 C 999.22 487.01 1001.88 486.58 1003.65 485.66 C 1009.59 483.19 1015.39 480.37 1021.38 478.01 C 1021.11 472.97 1020.43 467.97 1020.18 462.94 C 1020.14 460.94 1018.89 459.28 1018.10 457.54 C 1008.22 457.57 998.07 454.02 988.42 457.52 C 986.54 458.00 983.92 459.63 982.41 457.66 C 981.59 453.84 981.52 449.91 981.22 446.03 M 1029.37 459.25 C 1029.54 463.46 1030.44 467.59 1030.83 471.78 C 1033.45 471.71 1035.60 470.06 1037.87 468.92 C 1042.51 466.50 1047.04 463.86 1051.78 461.61 C 1044.31 460.84 1036.89 459.48 1029.37 459.25 Z" />
<path fill="#001437" opacity="1.00" d=" M 50.43 550.56 C 62.15 546.01 73.65 540.83 85.56 536.81 C 85.67 541.88 86.01 546.95 86.32 552.01 C 74.86 555.97 63.53 560.31 52.03 564.14 C 51.62 565.40 50.90 566.61 50.98 567.99 C 51.21 572.93 51.62 577.86 51.71 582.81 C 55.20 586.45 60.26 587.28 65.00 588.06 C 72.97 590.04 81.50 590.31 89.43 588.06 C 89.63 592.03 90.36 595.98 90.33 599.97 C 90.04 600.16 89.46 600.54 89.16 600.73 C 75.63 593.35 59.64 596.16 45.27 591.85 C 40.95 591.31 36.62 590.84 32.47 589.42 C 24.39 588.21 16.42 584.38 8.13 586.19 C 5.91 586.58 3.70 588.91 1.42 587.68 C -0.03 584.55 1.61 580.79 0.00 577.67 L 0.00 576.19 C 0.24 574.31 0.47 572.46 0.67 570.59 C 17.22 563.83 33.85 557.24 50.43 550.56 M 36.25 569.98 C 30.54 572.01 24.69 573.64 19.06 575.91 C 21.57 578.14 24.82 579.14 27.88 580.36 C 33.11 582.48 39.09 583.45 44.42 581.06 C 43.97 576.83 43.16 572.63 43.10 568.36 C 40.70 568.21 38.49 569.26 36.25 569.98 Z" />
<path fill="#001437" opacity="1.00" d=" M 991.35 563.19 C 1004.15 564.96 1017.00 566.48 1029.94 566.78 C 1045.62 567.88 1061.32 566.55 1077.00 566.11 L 1077.00 572.11 C 1076.54 576.71 1076.46 581.35 1076.45 585.98 C 1052.41 580.56 1027.63 581.93 1003.22 580.15 C 1001.40 579.96 999.60 580.26 997.84 580.62 C 995.17 590.04 994.47 601.23 1001.40 609.06 C 996.59 608.36 991.84 607.34 987.09 606.41 C 988.45 592.00 989.68 577.57 991.35 563.19 Z" />
<path fill="#001437" opacity="1.00" d=" M 504.67 602.42 C 506.50 602.35 508.34 602.30 510.19 602.26 C 512.64 604.79 510.83 609.05 513.74 611.26 C 514.69 612.15 515.78 612.87 516.94 613.49 C 520.93 612.82 524.90 611.98 528.82 610.95 C 531.84 610.21 532.10 606.85 532.61 604.34 C 535.06 602.35 538.97 601.43 541.56 603.72 C 540.96 605.74 540.31 607.76 539.54 609.72 C 535.86 611.91 532.89 615.47 528.54 616.35 C 525.09 617.33 521.56 618.01 518.17 619.18 C 516.34 620.60 516.65 623.25 516.61 625.32 C 517.49 625.37 519.24 625.46 520.12 625.51 C 521.38 623.76 522.29 621.41 524.48 620.65 C 528.25 620.12 532.58 621.35 535.88 618.94 C 537.42 617.19 538.57 613.65 541.55 614.51 C 544.23 616.77 543.48 620.74 542.70 623.75 C 538.13 624.69 533.49 625.22 528.89 625.99 C 526.39 626.28 525.16 628.92 522.87 629.72 C 517.53 631.75 511.69 631.08 506.11 631.48 C 501.28 620.94 487.64 622.79 479.62 616.25 C 479.25 614.36 478.85 612.47 478.45 610.60 C 479.41 607.51 482.32 605.41 485.61 606.39 C 487.46 608.14 488.78 610.36 490.25 612.42 C 492.50 612.31 494.69 611.75 496.84 611.11 C 501.24 614.95 505.41 619.06 509.45 623.28 C 511.19 622.54 512.51 621.18 513.11 619.38 C 509.35 616.35 505.76 613.10 502.28 609.76 C 502.06 607.19 503.94 604.84 504.67 602.42 Z" />
<path fill="#001437" opacity="1.00" d=" M 466.48 625.52 C 470.18 623.39 474.50 623.51 478.55 624.41 C 483.83 628.51 486.13 636.03 493.09 637.98 C 491.71 640.00 490.19 643.28 487.19 642.65 C 482.02 641.05 480.82 635.06 477.78 631.25 C 476.94 629.60 475.25 629.20 473.55 629.57 C 474.10 632.14 475.57 634.86 474.45 637.50 C 472.35 639.65 469.02 638.72 466.49 637.97 C 466.53 633.82 466.54 629.67 466.48 625.52 Z" />
<path fill="#001437" opacity="1.00" d=" M 490.11 625.68 C 495.04 625.24 499.97 629.93 500.01 634.88 C 496.22 635.06 493.65 632.20 491.36 629.62 C 490.21 628.62 489.90 627.13 490.11 625.68 Z" />
<path fill="#001437" opacity="1.00" d=" M 477.53 641.23 C 479.95 642.43 482.50 643.64 484.40 645.60 C 485.26 647.34 484.70 651.33 481.95 650.53 C 479.93 649.40 478.79 647.31 477.81 645.33 C 477.27 643.96 475.93 642.38 477.53 641.23 Z" />
<path fill="#001437" opacity="1.00" d=" M 505.34 653.43 C 508.38 651.90 509.06 656.03 509.57 658.09 C 510.45 660.10 507.92 661.88 506.08 661.68 C 502.27 661.43 498.15 661.96 494.66 660.10 C 497.63 657.06 501.74 655.56 505.34 653.43 Z" />
<path fill="#001437" opacity="1.00" d=" M 393.52 666.95 C 393.46 664.03 395.73 661.22 398.63 660.71 C 398.60 676.82 397.71 692.90 397.63 709.01 C 397.35 711.76 398.19 714.98 395.88 717.10 C 390.37 708.52 391.07 697.72 391.90 688.00 C 392.55 680.99 393.51 674.00 393.52 666.95 Z" />
<path fill="#001437" opacity="1.00" d=" M 39.58 683.72 C 60.13 677.21 80.61 670.47 101.20 664.09 C 102.62 669.21 104.73 674.12 105.97 679.29 C 81.85 687.41 57.92 696.10 33.74 704.03 C 32.65 708.44 35.04 712.77 38.06 715.82 C 40.53 717.95 43.42 719.49 46.19 721.17 C 43.74 725.97 37.28 728.02 32.19 727.56 C 28.98 721.44 27.33 714.66 24.95 708.21 C 23.85 705.16 22.49 702.18 21.99 698.95 C 20.09 688.82 15.86 679.19 14.76 668.90 C 16.36 666.53 19.54 667.15 21.95 666.42 C 24.22 665.70 26.54 665.14 28.94 665.08 C 26.72 672.08 23.70 680.11 27.98 686.97 C 32.01 686.55 35.73 684.84 39.58 683.72 Z" />
<path fill="#001437" opacity="1.00" d=" M 973.05 665.11 C 973.25 663.09 975.52 663.84 976.67 664.43 C 1001.93 674.94 1028.77 681.63 1055.93 684.75 C 1055.12 691.30 1053.20 697.64 1051.99 704.12 C 1028.30 693.69 1002.47 689.87 978.05 681.66 C 977.46 681.92 976.27 682.43 975.68 682.68 C 971.29 691.33 970.13 701.86 973.79 710.98 C 968.43 711.34 964.26 707.46 961.08 703.64 C 964.97 690.77 969.04 677.95 973.05 665.11 Z" />
<path fill="#001437" opacity="1.00" d=" M 593.16 680.22 C 594.14 678.85 594.44 675.16 596.84 676.97 C 596.21 681.20 592.70 684.38 590.98 688.24 C 587.97 688.31 583.14 689.23 583.48 684.63 C 586.74 683.37 591.61 684.11 593.16 680.22 Z" />
<path fill="#001437" opacity="1.00" d=" M 504.04 685.28 C 510.09 683.30 516.54 680.02 522.91 682.74 C 522.77 684.39 522.77 686.22 521.59 687.54 C 519.59 690.78 515.23 689.46 512.07 689.89 C 508.87 690.21 504.29 689.18 504.04 685.28 Z" />
<path fill="#001437" opacity="1.00" d=" M 937.20 760.67 C 937.10 755.71 940.59 751.60 942.52 747.23 C 948.55 752.61 953.54 759.02 959.06 764.91 C 973.37 780.68 988.08 796.67 1006.54 807.68 C 1004.16 812.59 1001.83 817.52 999.59 822.50 C 968.50 822.68 940.03 807.33 909.18 805.56 C 908.98 804.88 908.58 803.53 908.37 802.85 C 911.63 798.94 914.84 794.99 918.02 791.01 C 918.67 789.61 920.20 790.16 921.25 790.69 C 930.64 795.43 941.22 796.68 951.23 799.59 C 952.74 800.24 953.83 798.69 954.73 797.74 C 958.72 793.09 960.21 786.98 963.46 781.87 C 958.00 772.96 949.26 766.88 941.04 760.75 C 939.75 760.74 938.47 760.71 937.20 760.67 M 970.51 788.97 C 968.47 793.06 966.12 796.98 964.01 801.04 C 971.55 802.10 978.97 803.83 986.52 804.85 C 982.34 800.59 978.20 796.29 974.17 791.89 C 973.08 790.75 972.13 789.32 970.51 788.97 Z" />
<path fill="#001437" opacity="1.00" d=" M 113.05 754.04 C 121.35 749.46 132.03 751.18 139.54 756.55 C 144.10 759.56 146.37 764.82 148.09 769.80 C 150.16 776.64 150.69 784.59 147.10 791.02 C 130.73 810.62 105.36 819.33 87.86 837.67 C 82.66 833.41 78.19 827.63 77.55 820.72 C 94.13 814.45 108.18 803.44 122.94 793.92 C 128.13 791.04 133.25 787.74 136.86 782.92 C 138.93 777.29 139.64 770.30 135.84 765.23 C 130.80 759.52 122.15 757.07 114.97 759.85 C 98.79 766.33 84.26 776.14 68.54 783.57 C 65.86 784.81 64.63 787.71 62.60 789.69 C 61.58 791.31 59.64 789.80 58.24 789.71 C 57.05 786.40 54.96 783.32 55.05 779.67 C 74.42 771.22 93.73 762.60 113.05 754.04 Z" />
<path fill="#001437" opacity="1.00" d=" M 463.71 788.92 C 467.10 786.27 466.05 781.29 468.56 778.08 C 471.18 779.22 471.71 782.02 472.52 784.43 C 472.94 786.50 475.14 787.25 476.62 788.46 C 478.05 789.24 477.66 791.11 478.04 792.47 C 470.99 795.23 463.89 797.86 456.85 800.64 C 455.09 808.39 446.68 810.39 440.75 813.95 C 434.55 818.67 425.39 815.91 420.86 810.12 C 417.91 807.39 418.44 803.13 418.15 799.51 C 414.12 798.23 410.05 797.07 405.96 795.99 C 406.03 793.52 407.26 790.55 410.01 790.22 C 424.01 787.17 437.93 793.01 451.98 792.27 C 456.03 791.90 460.18 791.04 463.71 788.92 M 426.51 798.39 C 426.65 800.70 426.78 803.02 426.86 805.36 C 429.27 806.68 431.83 807.81 434.64 807.83 C 437.87 805.26 442.05 804.62 445.63 802.72 C 446.91 802.18 447.55 801.20 447.56 799.78 C 440.54 799.35 433.55 798.36 426.51 798.39 Z" />
<path fill="#001437" opacity="1.00" d=" M 197.02 842.98 C 197.63 841.89 199.36 841.92 200.03 842.90 C 203.40 846.58 206.62 850.40 210.06 854.02 C 193.77 867.27 177.47 880.68 163.34 896.27 C 160.00 900.45 155.86 904.21 153.39 908.95 C 157.58 915.17 165.22 918.35 172.60 917.80 C 169.51 921.50 166.32 925.13 163.38 928.96 C 148.00 918.46 136.32 903.68 124.45 889.56 C 122.96 887.73 120.88 885.90 121.27 883.28 C 124.82 880.20 128.87 877.77 132.54 874.84 C 133.38 881.71 134.04 889.81 140.04 894.32 C 140.49 894.35 141.39 894.42 141.84 894.45 C 160.94 878.09 180.64 862.18 197.02 842.98 Z" />
<path fill="#001437" opacity="1.00" d=" M 859.49 859.36 C 863.49 851.21 871.72 846.57 879.87 843.45 C 886.00 844.75 890.22 849.69 894.65 853.73 C 887.90 854.01 880.85 851.48 874.39 854.37 C 870.07 856.81 866.80 861.88 867.77 866.97 C 868.82 872.68 873.71 877.11 879.10 878.81 C 886.59 881.05 894.44 879.49 902.05 878.86 C 909.93 878.21 918.76 877.68 925.56 882.47 C 930.46 886.70 934.40 892.46 935.54 898.92 C 936.55 906.53 932.37 913.91 926.71 918.73 C 923.15 921.61 919.28 924.79 914.44 924.77 C 914.62 926.23 914.79 927.71 914.94 929.20 C 912.69 929.48 910.43 928.66 909.02 926.88 C 906.26 923.51 902.05 920.67 902.05 915.86 C 906.70 918.94 912.99 919.76 917.98 916.95 C 922.32 914.51 924.67 909.69 925.30 904.91 C 922.77 900.05 918.88 895.11 912.98 894.70 C 901.97 895.15 890.87 897.79 879.87 895.74 C 872.42 894.48 865.27 890.27 861.40 883.66 C 856.95 876.57 855.34 866.94 859.49 859.36 Z" />
<path fill="#001437" opacity="1.00" d=" M 257.33 950.69 C 261.68 948.82 265.71 946.03 270.48 945.40 C 270.48 949.93 270.48 954.47 270.48 959.02 C 265.87 960.65 261.36 962.54 256.73 964.10 C 257.22 959.64 257.28 955.16 257.33 950.69 Z" />
<path fill="#001437" opacity="1.00" d=" M 794.35 953.18 C 798.37 954.54 802.27 956.25 806.24 957.77 C 807.28 962.20 808.26 966.65 809.38 971.07 C 804.70 970.37 800.10 969.31 795.47 968.41 C 795.19 963.32 794.27 958.28 794.35 953.18 Z" />
<path fill="#001437" opacity="1.00" d=" M 365.53 959.94 C 371.69 962.55 377.31 966.25 383.30 969.24 C 382.46 969.81 381.63 970.39 380.80 970.98 C 368.45 994.80 354.88 1019.16 352.71 1046.46 C 346.58 1044.80 340.46 1043.04 334.37 1041.24 C 333.07 1040.88 333.15 1039.20 333.21 1038.16 C 334.61 1035.94 337.64 1035.19 338.66 1032.71 C 347.54 1008.45 363.73 986.42 365.53 959.94 Z" />
<path fill="#001437" opacity="1.00" d=" M 679.54 973.68 C 684.73 972.57 690.34 971.98 695.49 973.66 C 700.28 975.89 702.73 981.27 703.64 986.22 C 704.15 991.96 704.29 998.58 700.21 1003.17 C 698.98 1004.51 698.19 1006.15 698.05 1007.98 C 704.28 1009.40 710.67 1011.14 715.95 1014.90 C 722.68 1020.26 726.23 1029.69 723.74 1038.09 C 722.19 1043.41 720.61 1049.45 715.71 1052.72 C 707.90 1058.51 696.92 1061.44 687.67 1057.56 C 686.35 1054.93 684.64 1052.52 683.28 1049.92 C 683.42 1049.60 683.69 1048.95 683.83 1048.62 C 690.11 1050.39 697.44 1052.08 703.36 1048.33 C 708.05 1046.19 709.78 1040.76 710.14 1036.00 C 710.15 1029.74 707.03 1023.66 702.16 1019.80 C 696.77 1016.25 690.05 1015.00 683.67 1015.43 C 683.61 1014.98 683.48 1014.08 683.41 1013.63 C 688.07 1008.67 692.52 1002.26 691.43 995.10 C 690.60 991.35 689.06 987.56 686.26 984.87 C 683.22 982.88 679.25 982.85 675.88 983.91 C 672.22 985.20 670.07 988.64 667.78 991.54 C 666.52 988.55 665.31 984.99 666.62 981.84 C 670.42 978.43 674.92 975.82 679.54 973.68 Z" />
<path fill="#001437" opacity="1.00" d=" M 463.21 994.99 C 466.46 993.85 469.67 992.57 472.96 991.53 C 477.69 991.87 482.42 992.46 487.15 992.89 C 488.90 992.83 490.00 993.96 490.75 995.46 C 479.18 994.70 468.00 1001.25 462.06 1011.03 C 458.27 1016.28 454.66 1022.09 454.70 1028.83 C 460.44 1028.15 466.29 1027.04 472.06 1028.24 C 477.92 1029.08 482.94 1033.42 485.08 1038.88 C 487.45 1044.61 486.71 1050.97 486.51 1057.01 C 485.98 1066.45 479.71 1075.49 470.74 1078.72 C 460.05 1081.98 446.36 1078.41 441.02 1067.95 C 434.96 1056.64 435.98 1043.20 438.00 1030.98 C 440.32 1015.97 449.83 1002.21 463.21 994.99 M 456.74 1036.73 C 451.79 1043.29 450.09 1051.92 450.82 1060.00 C 451.47 1063.51 452.34 1067.53 455.19 1069.92 C 458.42 1071.01 462.48 1071.37 465.46 1069.43 C 470.79 1064.04 472.87 1056.28 473.34 1048.91 C 473.62 1043.52 472.23 1037.29 467.13 1034.49 C 463.70 1035.09 459.51 1034.24 456.74 1036.73 Z" />
<path fill="#001437" opacity="1.00" d=" M 561.40 999.48 C 564.67 995.78 569.80 995.23 574.19 993.61 C 582.43 992.70 592.54 992.70 598.29 999.74 C 603.42 1006.07 601.50 1014.92 598.92 1021.91 C 597.47 1026.34 592.35 1028.27 591.15 1032.84 C 597.82 1037.94 606.11 1042.28 609.33 1050.53 C 611.82 1056.41 609.53 1062.75 607.41 1068.37 C 604.72 1075.53 598.75 1081.95 590.86 1082.99 C 581.59 1084.46 570.78 1084.21 563.43 1077.57 C 555.29 1069.15 555.69 1054.22 563.87 1045.95 C 566.31 1043.44 569.02 1041.18 571.12 1038.36 C 565.00 1033.71 558.05 1029.04 555.40 1021.44 C 552.56 1013.76 555.40 1004.84 561.40 999.48 M 570.22 1019.86 C 573.05 1024.77 577.42 1029.07 583.02 1030.58 C 591.17 1024.15 593.38 1010.71 586.27 1002.73 C 583.13 999.05 577.96 1001.48 573.85 1000.81 C 568.11 1005.02 567.58 1013.71 570.22 1019.86 M 579.11 1041.60 C 576.88 1043.95 574.37 1046.19 573.16 1049.29 C 570.85 1054.97 569.20 1061.78 572.49 1067.43 C 574.81 1071.56 578.66 1076.32 583.97 1075.54 C 590.30 1075.61 595.46 1069.99 596.35 1063.98 C 597.79 1053.61 589.37 1042.99 579.11 1041.60 Z" />
<path fill="#001437" opacity="1.00" d=" M 12.73 1392.60 C 37.98 1390.44 63.35 1390.02 88.69 1390.40 C 99.71 1390.86 110.87 1392.05 121.34 1395.73 C 128.15 1398.31 134.80 1401.84 139.79 1407.26 C 147.30 1414.75 150.61 1425.60 150.51 1436.03 C 150.64 1444.57 148.32 1453.29 143.13 1460.16 C 137.27 1467.96 128.70 1473.18 119.94 1477.13 C 120.27 1479.58 122.47 1480.93 124.75 1481.28 C 138.84 1483.84 151.85 1492.58 159.02 1505.06 C 163.72 1513.17 165.86 1522.64 165.71 1531.99 C 165.80 1544.67 161.78 1557.66 153.17 1567.16 C 142.47 1579.22 126.63 1585.15 111.08 1587.77 C 87.89 1591.91 64.37 1587.86 41.04 1588.84 C 32.54 1589.07 24.05 1589.51 15.56 1589.75 C 14.37 1587.48 13.57 1584.48 15.21 1582.25 C 21.42 1580.46 29.32 1581.29 33.70 1575.64 C 37.66 1568.84 36.78 1560.53 37.28 1552.97 C 37.38 1514.33 37.29 1475.68 37.32 1437.04 C 37.28 1428.61 37.62 1420.12 36.18 1411.78 C 35.49 1407.79 33.11 1403.84 29.09 1402.53 C 23.83 1400.70 18.14 1400.77 12.65 1400.25 C 10.99 1397.93 10.95 1394.85 12.73 1392.60 M 68.47 1400.65 C 65.26 1401.18 61.81 1403.04 61.94 1406.79 C 61.73 1428.20 61.95 1449.63 61.84 1471.06 C 61.83 1473.17 61.72 1475.82 63.64 1477.24 C 67.49 1478.99 71.85 1478.17 75.94 1478.28 C 87.68 1477.58 100.11 1476.71 110.34 1470.30 C 118.03 1465.57 122.49 1456.86 123.51 1448.06 C 125.13 1437.11 123.63 1425.17 117.16 1415.95 C 111.23 1407.51 101.40 1402.61 91.46 1400.72 C 83.90 1399.40 76.02 1399.05 68.47 1400.65 M 67.05 1488.10 C 64.09 1488.36 61.56 1490.83 61.86 1493.92 C 61.85 1510.95 61.87 1527.97 61.85 1545.00 C 62.37 1553.26 62.58 1561.96 66.45 1569.48 C 70.88 1577.38 80.50 1579.97 88.95 1580.29 C 100.90 1580.57 113.58 1578.70 123.52 1571.61 C 131.57 1565.98 136.36 1556.62 137.76 1547.05 C 140.32 1529.73 135.53 1509.92 120.97 1499.01 C 105.72 1487.53 85.37 1486.24 67.05 1488.10 Z" />
<path fill="#001437" opacity="1.00" d=" M 254.51 1392.56 C 281.00 1390.47 307.59 1389.93 334.14 1390.46 C 350.55 1391.22 367.89 1394.38 380.81 1405.27 C 397.04 1418.62 400.58 1443.37 391.95 1461.94 C 385.38 1475.99 372.33 1485.88 358.27 1491.72 C 358.95 1497.35 363.02 1501.61 365.66 1506.40 C 381.48 1531.26 396.95 1557.10 419.28 1576.77 C 425.52 1582.62 433.82 1585.68 442.24 1586.50 C 442.32 1587.63 442.36 1588.79 442.36 1589.96 C 439.59 1591.67 436.18 1591.60 433.05 1592.00 L 421.70 1592.00 C 413.05 1591.30 404.32 1589.52 396.73 1585.15 C 388.40 1580.55 381.68 1573.64 375.55 1566.48 C 362.54 1550.66 352.73 1532.57 341.41 1515.57 C 338.06 1510.74 335.26 1504.99 329.85 1502.15 C 323.09 1498.76 315.30 1499.75 308.01 1499.73 C 305.45 1499.70 301.74 1500.63 302.28 1503.95 C 302.25 1522.52 302.17 1541.11 302.33 1559.68 C 302.73 1565.96 302.66 1573.74 308.31 1577.85 C 313.98 1581.20 320.84 1580.93 327.12 1582.29 C 327.58 1584.81 327.19 1587.32 326.33 1589.73 C 311.20 1589.20 296.08 1588.33 280.94 1588.82 C 271.55 1588.72 262.17 1589.72 252.78 1589.53 C 250.23 1588.52 251.42 1584.58 251.40 1582.33 C 257.94 1580.86 265.12 1581.54 271.09 1578.08 C 275.54 1575.40 276.35 1569.80 276.92 1565.09 C 277.67 1556.77 277.49 1548.39 277.52 1540.04 C 277.52 1508.02 277.52 1476.00 277.52 1443.98 C 277.42 1433.99 277.86 1423.95 276.66 1414.01 C 276.17 1409.56 274.50 1404.46 269.94 1402.71 C 264.91 1401.12 259.57 1400.90 254.36 1400.26 C 253.01 1397.78 253.03 1394.96 254.51 1392.56 M 305.18 1401.11 C 302.81 1401.99 302.15 1404.72 302.25 1407.00 C 302.25 1424.69 302.26 1442.39 302.25 1460.09 C 302.52 1469.78 301.69 1479.53 302.72 1489.19 C 308.71 1490.64 314.89 1490.24 320.99 1490.52 C 330.37 1490.53 340.15 1490.09 348.75 1485.96 C 357.92 1481.59 364.43 1472.74 366.96 1463.02 C 369.68 1452.57 370.05 1441.36 367.06 1430.93 C 364.41 1421.81 358.91 1413.37 351.00 1408.00 C 342.04 1401.70 330.82 1399.37 320.00 1399.67 C 315.05 1399.72 309.90 1399.36 305.18 1401.11 Z" />
<path fill="#001437" opacity="1.00" d=" M 503.99 1390.27 C 516.68 1390.42 529.33 1391.39 542.03 1391.14 C 554.71 1391.41 567.35 1390.41 580.03 1390.28 C 580.95 1392.57 581.15 1395.11 580.57 1397.54 C 573.95 1399.03 566.48 1397.63 560.56 1401.56 C 555.45 1405.29 555.17 1412.25 554.65 1418.01 C 553.96 1443.01 554.36 1468.04 554.25 1493.05 C 554.35 1516.02 553.96 1539.00 554.65 1561.95 C 555.17 1567.64 555.54 1574.69 560.91 1578.09 C 566.94 1581.62 574.25 1580.76 580.83 1582.41 C 580.91 1584.85 580.93 1587.34 580.10 1589.71 C 564.75 1589.32 549.42 1588.32 534.07 1588.80 C 524.05 1588.66 514.04 1589.82 504.04 1589.49 C 502.60 1587.40 503.29 1584.75 503.23 1582.41 C 510.53 1580.43 519.48 1582.01 525.29 1576.23 C 529.35 1571.13 529.09 1564.10 529.49 1557.93 C 529.56 1512.95 529.52 1467.97 529.51 1422.98 C 529.14 1416.42 529.50 1409.05 525.46 1403.48 C 519.92 1397.26 510.78 1399.21 503.45 1397.55 C 502.76 1395.13 503.07 1392.57 503.99 1390.27 Z" />
<path fill="#001437" opacity="1.00" d=" M 663.23 1390.33 C 676.83 1390.31 690.39 1391.45 703.99 1391.14 C 716.14 1391.43 728.26 1390.24 740.41 1390.38 C 741.21 1392.77 741.56 1395.31 740.69 1397.77 C 733.63 1398.79 725.46 1397.72 719.65 1402.62 C 714.78 1408.19 715.58 1416.15 714.88 1423.03 C 714.85 1465.03 714.85 1507.04 714.87 1549.05 C 715.45 1557.31 715.26 1566.93 721.75 1573.11 C 728.18 1578.45 737.07 1578.50 744.99 1579.27 C 757.61 1579.22 770.34 1579.94 782.87 1577.95 C 787.38 1577.23 791.58 1574.99 794.59 1571.55 C 801.45 1564.04 806.02 1554.76 809.76 1545.39 C 812.47 1545.29 815.94 1544.78 817.50 1547.64 C 814.28 1561.90 810.30 1576.05 804.89 1589.65 C 776.27 1588.93 747.65 1588.60 719.01 1588.68 C 700.53 1588.48 682.07 1589.00 663.62 1589.77 C 662.20 1587.64 661.55 1584.41 663.16 1582.30 C 669.88 1580.75 677.30 1581.81 683.55 1578.40 C 686.97 1576.56 688.40 1572.65 689.13 1569.07 C 690.51 1560.11 690.31 1551.01 690.32 1541.97 C 690.32 1507.65 690.32 1473.32 690.32 1439.00 C 690.29 1429.95 690.55 1420.86 689.25 1411.89 C 688.62 1407.61 686.91 1402.91 682.72 1400.97 C 676.51 1398.09 669.48 1398.57 662.84 1397.78 C 662.02 1395.31 662.22 1392.70 663.23 1390.33 Z" />
<path fill="#001437" opacity="1.00" d=" M 888.03 1390.30 C 901.37 1390.35 914.68 1391.40 928.02 1391.14 C 940.37 1391.38 952.68 1390.39 965.03 1390.28 C 966.00 1392.60 965.92 1395.12 965.71 1397.61 C 958.84 1398.92 951.00 1397.69 945.07 1402.06 C 939.88 1406.80 940.32 1414.52 939.71 1420.96 C 939.66 1464.31 939.66 1507.65 939.71 1551.00 C 940.23 1558.95 940.57 1568.30 947.30 1573.76 C 953.83 1578.48 962.28 1578.57 969.99 1579.28 C 982.67 1579.19 995.46 1579.98 1008.02 1577.86 C 1013.20 1577.05 1017.66 1573.91 1020.87 1569.86 C 1026.96 1562.60 1031.01 1553.94 1034.67 1545.28 C 1037.22 1545.13 1039.81 1545.34 1042.01 1546.79 C 1041.00 1555.72 1037.92 1564.27 1035.52 1572.90 C 1033.78 1578.61 1031.91 1584.30 1029.46 1589.76 C 993.98 1588.56 958.47 1588.66 922.97 1588.70 C 911.56 1588.76 900.17 1589.57 888.77 1589.60 C 886.29 1588.38 887.32 1584.65 887.41 1582.35 C 894.35 1580.81 901.97 1581.84 908.40 1578.33 C 912.70 1575.81 913.83 1570.48 914.35 1565.90 C 915.48 1551.27 915.08 1536.60 915.14 1521.94 C 915.14 1492.95 915.13 1463.97 915.14 1434.99 C 915.27 1428.59 914.71 1422.21 914.48 1415.83 C 914.02 1410.68 913.16 1404.62 908.46 1401.56 C 902.14 1397.70 894.37 1399.12 887.49 1397.46 C 886.72 1395.07 887.19 1392.57 888.03 1390.30 Z" />
</g>
</svg>
